
<svg version="1.1" xmlns="http://www.w3.org/2000/svg" width="512" height="512">
<path d="M0 0 C158.4 0 316.8 0 480 0 C480.12375 78.705 480.12375 78.705 480.25 159 C480.28641602 175.58121094 480.32283203 192.16242188 480.36035156 209.24609375 C480.37841797 229.45898438 480.37841797 229.45898438 480.3817749 238.91479492 C480.38550875 245.53366766 480.40019701 252.15240572 480.42230225 258.77124023 C480.44775516 266.40372321 480.45934577 274.03607678 480.4537798 281.66860253 C480.45136898 285.57341195 480.45520425 289.4779321 480.47686052 293.38268852 C480.49991234 297.56448272 480.49197918 301.74564704 480.48101807 305.92749023 C480.49266872 307.14505005 480.50431938 308.36260986 480.51632309 309.61706543 C480.45995326 317.59798533 479.44317379 323.07081162 474.03515625 329.2421875 C473.38417969 329.78101563 472.73320312 330.31984375 472.0625 330.875 C471.41410156 331.42929687 470.76570313 331.98359375 470.09765625 332.5546875 C465.37452097 335.80898927 461.06066193 336.29025952 455.44176006 336.25726891 C454.68537295 336.26077498 453.92898584 336.26428105 453.1496779 336.26789337 C450.60660427 336.27722214 448.06375891 336.27228027 445.52067566 336.26742554 C443.68239906 336.27116105 441.84412405 336.27576218 440.00585157 336.28115618 C434.94747315 336.29341378 429.88916074 336.29312247 424.83077085 336.29076743 C419.37801996 336.29035996 413.92529043 336.30139171 408.47254944 336.31088257 C397.78703547 336.3275086 387.10154356 336.33299284 376.41601773 336.33410732 C367.73199093 336.33505703 359.04797141 336.33916342 350.36394691 336.34550858 C325.75347189 336.36312525 301.14301331 336.3723589 276.53253206 336.37084763 C275.86914225 336.37080774 275.20575243 336.37076785 274.5222599 336.37072675 C273.18072379 336.37064587 271.83918768 336.37056228 270.49765157 336.37047596 C249.62527827 336.36925044 228.75296994 336.38426349 207.88061523 336.41162109 C184.43309047 336.4423413 160.98560134 336.45952829 137.53805429 336.45769465 C125.12213809 336.45703012 112.70629517 336.46255006 100.29039574 336.48405075 C89.71980399 336.50223831 79.14931874 336.50662982 68.57871815 336.4930319 C63.18433294 336.48649007 57.79015219 336.48642898 52.39578629 336.5037384 C47.45789651 336.51942029 42.52037413 336.51665547 37.58249358 336.49917014 C35.79583526 336.49608947 34.00914986 336.49977263 32.22252347 336.51089029 C14.26668061 336.61522708 14.26668061 336.61522708 6.7578125 330.03515625 C6.21898437 329.38417969 5.68015625 328.73320312 5.125 328.0625 C4.57070313 327.41410156 4.01640625 326.76570313 3.4453125 326.09765625 C0.60570322 321.97638549 -0.24999588 318.3697547 -0.24609566 313.40281963 C-0.2500774 312.28131071 -0.25405914 311.15980179 -0.25816154 310.00430775 C-0.25233622 308.77800994 -0.24651089 307.55171213 -0.24050903 306.28825378 C-0.24222107 304.98448288 -0.24393311 303.68071198 -0.24569702 302.33743286 C-0.25018429 298.71308785 -0.24215432 295.08886094 -0.23214546 291.46453093 C-0.22341804 287.49820915 -0.22633429 283.53189291 -0.2277813 279.56556416 C-0.22884507 271.8646753 -0.219606 264.16383305 -0.20677864 256.46295618 C-0.19238642 247.55623212 -0.19078957 238.64953611 -0.18920898 229.74279785 C-0.17870556 206.22435784 -0.15078337 182.70592822 -0.125 159.1875 C-0.063125 80.3896875 -0.063125 80.3896875 0 0 Z M152 38 C144.52172792 48.52823402 135.61390268 62.04237191 136.5078125 75.34375 C137.864762 82.66696954 141.60554898 87.87573995 147.67578125 92.19140625 C153.50764591 95.65671713 159.36802202 95.85920362 166 95 C172.64795556 93.19410375 177.16229097 88.56986418 181 83 C183.96919358 76.72946576 184.50866439 70.44612271 182.25292969 63.79833984 C175.35642165 46.20250042 175.35642165 46.20250042 163 33 C157.31471731 32.24196231 155.71108557 33.84996882 152 38 Z M232 38 C224.52172792 48.52823402 215.61390268 62.04237191 216.5078125 75.34375 C217.864762 82.66696954 221.60554898 87.87573995 227.67578125 92.19140625 C233.50764591 95.65671713 239.36802202 95.85920362 246 95 C252.64795556 93.19410375 257.16229097 88.56986418 261 83 C263.96919358 76.72946576 264.50866439 70.44612271 262.25292969 63.79833984 C255.35642165 46.20250042 255.35642165 46.20250042 243 33 C237.31471731 32.24196231 235.71108557 33.84996882 232 38 Z M312 38 C304.52172792 48.52823402 295.61390268 62.04237191 296.5078125 75.34375 C297.864762 82.66696954 301.60554898 87.87573995 307.67578125 92.19140625 C313.50764591 95.65671713 319.36802202 95.85920362 326 95 C332.64795556 93.19410375 337.16229097 88.56986418 341 83 C343.96919358 76.72946576 344.50866439 70.44612271 342.25292969 63.79833984 C335.35642165 46.20250042 335.35642165 46.20250042 323 33 C317.31471731 32.24196231 315.71108557 33.84996882 312 38 Z M138 107 C135.22729788 111.29316811 135.74463025 116.29791367 135.8046875 121.23828125 C135.80893234 122.55943184 135.80893234 122.55943184 135.81326294 123.90727234 C135.82442167 126.70915545 135.84951829 129.51071416 135.875 132.3125 C135.88503537 134.21679225 135.89416025 136.12108952 135.90234375 138.02539062 C135.92434691 142.68371797 135.95884706 147.34180406 136 152 C134.35451172 151.98803589 134.35451172 151.98803589 132.67578125 151.97583008 C131.22135497 151.96937899 129.76692782 151.96312301 128.3125 151.95703125 C127.59126953 151.95127075 126.87003906 151.94551025 126.12695312 151.9395752 C117.28829659 151.91182827 109.86985212 153.09012722 103 159 C96.22372174 166.87699352 95.69876471 176.48915516 95.7253418 186.47338867 C95.72023087 187.47943649 95.71511993 188.48548431 95.70985413 189.52201843 C95.69604448 192.82073037 95.69690763 196.11923149 95.69921875 199.41796875 C95.69532862 201.72243832 95.6909933 204.02690718 95.68623352 206.33137512 C95.67879103 211.14859346 95.67904942 215.96573847 95.68432617 220.78295898 C95.6901347 226.9533463 95.6731467 233.12343481 95.6499815 239.2937727 C95.63525095 244.04728446 95.63437127 248.80072399 95.63749123 253.55425453 C95.63697822 255.82961941 95.63174439 258.10498836 95.62167931 260.38033104 C95.60933827 263.55868406 95.61609165 266.73645123 95.62768555 269.91479492 C95.62004181 270.85156067 95.61239807 271.78832642 95.60452271 272.753479 C95.64563816 277.85495422 95.9216741 281.70797482 99 286 C102.37004075 287.6639283 105.109147 288.25053053 108.84640408 288.25447559 C109.80014272 288.26030779 110.75388137 288.26613998 111.73652118 288.27214891 C112.7762022 288.26836958 113.81588321 288.26459026 114.8870697 288.26069641 C116.55321716 288.26643473 116.55321716 288.26643473 118.25302416 288.27228898 C121.98245134 288.28262425 125.71172471 288.27862577 129.44116211 288.2746582 C132.1119386 288.27900437 134.78270374 288.28412256 137.45347595 288.29014587 C143.9593034 288.30289696 150.46508957 288.30468607 156.97092741 288.30234561 C162.25870993 288.30056281 167.54647992 288.30231127 172.83426094 288.30657005 C173.96299365 288.30746284 173.96299365 288.30746284 175.11452903 288.30837366 C176.64319098 288.3095854 178.17185292 288.31079954 179.70051486 288.31201603 C194.03708364 288.32289307 208.3736289 288.32072826 222.71019901 288.31463119 C235.82643957 288.30946142 248.94260587 288.32071875 262.05883174 288.33972941 C275.52651384 288.35909984 288.99416079 288.36736523 302.4618569 288.36360615 C310.02298111 288.36169296 317.5840421 288.3641932 325.14515495 288.37832069 C331.58171719 288.39022532 338.01817731 288.39164972 344.45474093 288.37953053 C347.73855312 288.37363542 351.02213954 288.37418259 354.30594635 288.38453293 C357.86612089 288.39494662 361.42579058 288.38694246 364.98594666 288.3742218 C366.54212209 288.38528323 366.54212209 288.38528323 368.12973541 288.39656812 C373.49171186 288.35616297 377.39670831 288.08409148 382 285 C384.9019932 280.5914157 384.28073426 275.12566666 384.25878906 270.02832031 C384.2622937 269.02767548 384.26579834 268.02703064 384.26940918 266.99606323 C384.27820683 263.6900131 384.27238239 260.3841773 384.265625 257.078125 C384.26697264 254.77512572 384.26891399 252.47212672 384.27142334 250.16912842 C384.2743723 245.34058933 384.2700858 240.51212424 384.26074219 235.68359375 C384.24937347 229.50895894 384.25589227 223.3344985 384.26788712 217.15987015 C384.2751337 212.40194397 384.27280449 207.64405873 384.26763153 202.88613129 C384.26630144 200.61046071 384.26792021 198.33478636 384.27259064 196.05912018 C384.27769898 192.86906686 384.26988405 189.67929063 384.25878906 186.48925781 C384.26486176 185.09086166 384.26486176 185.09086166 384.27105713 183.66421509 C384.21375926 174.72134736 383.20480272 165.86857232 377 159 C368.98617748 152.75193499 361.44373394 151.81997389 351.5625 151.9375 C350.83095703 151.94201172 350.09941406 151.94652344 349.34570312 151.95117188 C347.56376581 151.96281852 345.78187137 151.98074809 344 152 C344.01571045 150.81970215 344.0314209 149.6394043 344.04760742 148.42333984 C344.10205894 144.02887848 344.13640538 139.63444674 344.16479492 135.23974609 C344.17984691 133.34060647 344.20029316 131.44150141 344.22631836 129.54248047 C344.26285992 126.80687919 344.27976238 124.071739 344.29296875 121.3359375 C344.30845261 120.49195404 344.32393646 119.64797058 344.33988953 118.77841187 C344.34129431 113.81639705 343.95948214 110.19216343 341 106 C335.50693953 102.66331865 328.51109302 103.66564067 322.28051758 103.68432617 C320.07257685 103.68748558 317.86597846 103.66400337 315.65820312 103.63867188 C314.24218918 103.6363984 312.82617166 103.63569561 311.41015625 103.63671875 C310.13277588 103.63373779 308.85539551 103.63075684 307.53930664 103.62768555 C303.62470501 104.03947885 301.26364408 104.80557876 298 107 C295.22729788 111.29316811 295.74463025 116.29791367 295.8046875 121.23828125 C295.8075174 122.11904831 295.81034729 122.99981537 295.81326294 123.90727234 C295.82442167 126.70915545 295.84951829 129.51071416 295.875 132.3125 C295.88503537 134.21679225 295.89416025 136.12108952 295.90234375 138.02539062 C295.92264191 142.68381806 295.96179857 147.34154762 296 152 C285.44 152 274.88 152 264 152 C264.03480469 149.18210937 264.06960938 146.36421875 264.10546875 143.4609375 C264.12888986 140.72055066 264.14709189 137.98017513 264.16479492 135.23974609 C264.17984691 133.34060647 264.20029316 131.44150141 264.22631836 129.54248047 C264.26285992 126.80687919 264.27976238 124.071739 264.29296875 121.3359375 C264.30845261 120.49195404 264.32393646 119.64797058 264.33988953 118.77841187 C264.34129431 113.81639705 263.95948214 110.19216343 261 106 C255.50693953 102.66331865 248.51109302 103.66564067 242.28051758 103.68432617 C240.07257685 103.68748558 237.86597846 103.66400337 235.65820312 103.63867188 C234.24218918 103.6363984 232.82617166 103.63569561 231.41015625 103.63671875 C230.13277588 103.63373779 228.85539551 103.63075684 227.53930664 103.62768555 C223.62470501 104.03947885 221.26364408 104.80557876 218 107 C215.22729788 111.29316811 215.74463025 116.29791367 215.8046875 121.23828125 C215.80893234 122.55943184 215.80893234 122.55943184 215.81326294 123.90727234 C215.82442167 126.70915545 215.84951829 129.51071416 215.875 132.3125 C215.88503537 134.21679225 215.89416025 136.12108952 215.90234375 138.02539062 C215.92264191 142.68381806 215.96179857 147.34154762 216 152 C205.44 152 194.88 152 184 152 C184.03480469 149.18210937 184.06960937 146.36421875 184.10546875 143.4609375 C184.12888986 140.72055066 184.14709189 137.98017513 184.16479492 135.23974609 C184.17984691 133.34060647 184.20029316 131.44150141 184.22631836 129.54248047 C184.26285992 126.80687919 184.27976238 124.071739 184.29296875 121.3359375 C184.30845261 120.49195404 184.32393646 119.64797058 184.33988953 118.77841187 C184.34129431 113.81639705 183.95948214 110.19216343 181 106 C175.50693953 102.66331865 168.51109302 103.66564067 162.28051758 103.68432617 C160.07257685 103.68748558 157.86597846 103.66400337 155.65820312 103.63867188 C154.24218918 103.6363984 152.82617166 103.63569561 151.41015625 103.63671875 C150.13277588 103.63373779 148.85539551 103.63075684 147.53930664 103.62768555 C143.62470501 104.03947885 141.26364408 104.80557876 138 107 Z " fill="#ffffff" transform="translate(16,160)"/>
<path d="M0 0 C1.1007637 0.00015106 2.2015274 0.00030212 3.33564758 0.00045776 C5.10152473 0.01594162 5.10152473 0.01594162 6.90307617 0.03173828 C8.72363777 0.03598312 8.72363777 0.03598312 10.58097839 0.04031372 C14.45276804 0.0514977 18.32432533 0.07659948 22.19604492 0.10205078 C24.8229947 0.11208287 27.44994811 0.12120832 30.0769043 0.12939453 C36.51253028 0.15143124 42.948021 0.18489137 49.38354492 0.22705078 C49.41327393 1.61041626 49.41327393 1.61041626 49.44360352 3.02172852 C49.52226174 6.48290764 49.60897027 9.94369926 49.70092773 13.40454102 C49.73892642 14.89502352 49.77382688 16.38558867 49.80541992 17.8762207 C49.94865864 33.4241936 49.94865864 33.4241936 56.38354492 47.22705078 C56.38354492 47.88705078 56.38354492 48.54705078 56.38354492 49.22705078 C57.70612964 49.91479484 59.04340995 50.57416451 60.38354492 51.22705078 C61.37354492 51.76330078 62.36354492 52.29955078 63.38354492 52.85205078 C69.11411335 55.25519238 75.78440944 55.23649112 81.72338867 53.57080078 C87.67070373 50.92247623 91.75511505 46.40636625 94.69604492 40.66455078 C96.19410853 35.35323435 96.5459544 30.14099792 96.69995117 24.64111328 C96.73805908 23.35672363 96.77616699 22.07233398 96.81542969 20.74902344 C96.85853271 19.13302246 96.90163574 17.51702148 96.94604492 15.85205078 C97.09041992 10.69580078 97.23479492 5.53955078 97.38354492 0.22705078 C113.22354492 0.22705078 129.06354492 0.22705078 145.38354492 0.22705078 C145.75854492 15.66455078 145.75854492 15.66455078 145.86157227 20.47875977 C146.24406863 34.69385237 146.24406863 34.69385237 152.38354492 47.22705078 C152.38354492 47.88705078 152.38354492 48.54705078 152.38354492 49.22705078 C153.70612964 49.91479484 155.04340995 50.57416451 156.38354492 51.22705078 C157.37354492 51.76330078 158.36354492 52.29955078 159.38354492 52.85205078 C165.11411335 55.25519238 171.78440944 55.23649112 177.72338867 53.57080078 C183.67070373 50.92247623 187.75511505 46.40636625 190.69604492 40.66455078 C192.19410853 35.35323435 192.5459544 30.14099792 192.69995117 24.64111328 C192.73805908 23.35672363 192.77616699 22.07233398 192.81542969 20.74902344 C192.85853271 19.13302246 192.90163574 17.51702148 192.94604492 15.85205078 C193.09041992 10.69580078 193.23479492 5.53955078 193.38354492 0.22705078 C209.22354492 0.22705078 225.06354492 0.22705078 241.38354492 0.22705078 C241.75854492 15.66455078 241.75854492 15.66455078 241.86157227 20.47875977 C242.24406863 34.69385237 242.24406863 34.69385237 248.38354492 47.22705078 C248.38354492 47.88705078 248.38354492 48.54705078 248.38354492 49.22705078 C249.70612964 49.91479484 251.04340995 50.57416451 252.38354492 51.22705078 C253.86854492 52.03142578 253.86854492 52.03142578 255.38354492 52.85205078 C261.11411335 55.25519238 267.78440944 55.23649112 273.72338867 53.57080078 C279.67070373 50.92247623 283.75511505 46.40636625 286.69604492 40.66455078 C288.19410853 35.35323435 288.5459544 30.14099792 288.69995117 24.64111328 C288.73805908 23.35672363 288.77616699 22.07233398 288.81542969 20.74902344 C288.88008423 18.32502197 288.88008423 18.32502197 288.94604492 15.85205078 C289.09041992 10.69580078 289.23479492 5.53955078 289.38354492 0.22705078 C305.22354492 0.22705078 321.06354492 0.22705078 337.38354492 0.22705078 C337.75854492 15.66455078 337.75854492 15.66455078 337.86157227 20.47875977 C338.24406863 34.69385237 338.24406863 34.69385237 344.38354492 47.22705078 C344.38354492 47.88705078 344.38354492 48.54705078 344.38354492 49.22705078 C345.70612964 49.91479484 347.04340995 50.57416451 348.38354492 51.22705078 C349.86854492 52.03142578 349.86854492 52.03142578 351.38354492 52.85205078 C357.11411335 55.25519238 363.78440944 55.23649112 369.72338867 53.57080078 C375.67070373 50.92247623 379.75511505 46.40636625 382.69604492 40.66455078 C384.19410853 35.35323435 384.5459544 30.14099792 384.69995117 24.64111328 C384.73112282 23.58843765 384.73112282 23.58843765 384.76292419 22.51449585 C384.82780816 20.2937712 384.88701722 18.07293802 384.94604492 15.85205078 C384.98928846 14.33771707 385.03290452 12.82339395 385.0769043 11.30908203 C385.18342578 7.61518423 385.28486169 3.92116725 385.38354492 0.22705078 C393.06979019 0.12534548 400.75586087 0.05545676 408.44262695 0.00732422 C411.05564865 -0.01274855 413.66862567 -0.0400128 416.28149414 -0.07470703 C420.04479014 -0.12341356 423.80749041 -0.14596233 427.57104492 -0.16357422 C428.7328125 -0.18421936 429.89458008 -0.2048645 431.09155273 -0.22613525 C439.05224875 -0.22832066 444.47085961 0.79833874 450.62573242 6.19189453 C451.16456055 6.84287109 451.70338867 7.49384766 452.25854492 8.16455078 C452.8128418 8.81294922 453.36713867 9.46134766 453.93823242 10.12939453 C468.72280598 31.58700534 457.38354492 62.1691791 457.38354492 88.22705078 C298.98354492 88.22705078 140.58354492 88.22705078 -22.61645508 88.22705078 C-22.61645508 13.79166311 -22.61645508 13.79166311 -16.65161133 6.98486328 C-16.00063477 6.44603516 -15.3496582 5.90720703 -14.67895508 5.35205078 C-14.03055664 4.79775391 -13.3821582 4.24345703 -12.71411133 3.67236328 C-8.58161825 0.82502168 -4.98113031 -0.02290175 0 0 Z " fill="#ffffff" transform="translate(38.616455078125,55.77294921875)"/>
<path d="M0 0 C7.78299299 1.11185614 7.78299299 1.11185614 10.8125 4.75 C16.99782979 11.32560872 22.90890611 14.25031283 32 14.625 C41.16630567 14.247213 47.07020926 11.15674489 53.5 4.75 C54.1290625 4.06421875 54.758125 3.3784375 55.40625 2.671875 C57.95776496 -0.00471422 60.02839252 -0.27729985 63.625 -0.5 C69.02704943 -0.45349742 71.26199381 1.32449381 74.984375 5.046875 C82.4147298 12.24683121 89.15321823 14.44100702 99.35546875 14.3359375 C108.06265732 13.53334563 113.65413945 8.94261847 119.40625 2.671875 C121.95776496 -0.00471422 124.02839252 -0.27729985 127.625 -0.5 C133.02704943 -0.45349742 135.26199381 1.32449381 138.984375 5.046875 C146.4147298 12.24683121 153.15321823 14.44100702 163.35546875 14.3359375 C172.06265732 13.53334563 177.65413945 8.94261847 183.40625 2.671875 C185.95776496 -0.00471422 188.02839252 -0.27729985 191.625 -0.5 C197.02704943 -0.45349742 199.26199381 1.32449381 202.984375 5.046875 C210.4147298 12.24683121 217.15321823 14.44100702 227.35546875 14.3359375 C235.98986683 13.54005515 241.50295029 9.17478656 246.91796875 2.671875 C249 1 249 1 256 0 C256 18.48 256 36.96 256 56 C171.52 56 87.04 56 0 56 C0 37.52 0 19.04 0 0 Z " fill="#ffffff" transform="translate(128,376)"/>
<path d="M0 0 C1.01331642 -0.00623996 2.02663284 -0.01247993 3.07065582 -0.01890898 C6.47637492 -0.03490224 9.88138459 -0.02220956 13.28710938 -0.00964355 C15.72453226 -0.01506184 18.16195186 -0.02218283 20.59936523 -0.03088379 C26.53855182 -0.04725601 32.47755321 -0.04482345 38.4167347 -0.03323323 C43.24309067 -0.02420413 48.06938996 -0.02297262 52.89575195 -0.02732849 C53.58234469 -0.02794142 54.26893743 -0.02855436 54.976336 -0.02918586 C56.37108296 -0.03046475 57.7658299 -0.0317616 59.16057682 -0.03307623 C72.24288806 -0.04448575 85.32508724 -0.03136253 98.4073801 -0.00987476 C109.63557516 0.0079966 120.86360481 0.00489259 132.09179688 -0.0135498 C145.12689692 -0.03495 158.1618987 -0.04338708 171.19701385 -0.03110075 C172.58666482 -0.02982654 173.9763158 -0.02856905 175.3659668 -0.02732849 C176.04972334 -0.02671139 176.73347989 -0.02609429 177.43795633 -0.02545848 C182.25919863 -0.02200302 187.08037867 -0.02783814 191.90161133 -0.0372467 C198.38917798 -0.04962865 204.87650539 -0.04082857 211.36404419 -0.01766968 C213.74894693 -0.01236815 216.13387591 -0.01392087 218.51876831 -0.02272034 C221.76677765 -0.033602 225.01377446 -0.02000071 228.26171875 0 C229.68758175 -0.01338433 229.68758175 -0.01338433 231.14225006 -0.02703905 C237.48426343 0.04905369 237.48426343 0.04905369 240.71929932 2.3449173 C242.7099162 5.39525771 242.58500358 7.62171502 242.52148438 11.24230957 C242.50214844 13.18557129 242.50214844 13.18557129 242.48242188 15.16809082 C242.44900304 16.53138281 242.41514328 17.89466406 242.38085938 19.25793457 C242.36078645 20.63681521 242.34253705 22.01572369 242.32617188 23.39465332 C242.27901385 26.76645201 242.21320475 30.13684144 242.13085938 33.50793457 C241.12853271 33.67772827 241.12853271 33.67772827 240.10595703 33.85095215 C233.42652228 35.02751846 233.42652228 35.02751846 227.50585938 38.19543457 C226.40177734 38.97854004 226.40177734 38.97854004 225.27539062 39.77746582 C223.10381254 41.52975925 221.17712952 43.42301738 219.19335938 45.38293457 C216.21666077 48.03414923 214.12940855 49.08991112 210.13085938 49.38293457 C205.0991959 49.01420198 202.62824975 46.94282495 199.14648438 43.46105957 C191.71612957 36.26110336 184.97764114 34.06692755 174.77539062 34.17199707 C166.06820206 34.97458894 160.47671992 39.56531611 154.72460938 45.83605957 C152.17309442 48.51264879 150.10246686 48.78523442 146.50585938 49.00793457 C141.10380994 48.96143199 138.86886556 47.18344076 135.14648438 43.46105957 C127.71612957 36.26110336 120.97764114 34.06692755 110.77539062 34.17199707 C102.06820206 34.97458894 96.47671992 39.56531611 90.72460938 45.83605957 C88.17309442 48.51264879 86.10246686 48.78523442 82.50585938 49.00793457 C77.10380994 48.96143199 74.86886556 47.18344076 71.14648438 43.46105957 C63.71612957 36.26110336 56.97764114 34.06692755 46.77539062 34.17199707 C38.06820206 34.97458894 32.47671992 39.56531611 26.72460938 45.83605957 C24.17309442 48.51264879 22.10246686 48.78523442 18.50585938 49.00793457 C13.09041736 48.96131671 10.86941416 47.16233339 7.11914062 43.45715332 C5.10241258 41.48004665 3.05847596 39.82863898 0.75585938 38.19543457 C0.10875 37.72492676 -0.53835937 37.25441895 -1.20507812 36.76965332 C-5.2385767 34.85936001 -9.48977832 34.24979664 -13.86914062 33.50793457 C-13.96823203 29.4512851 -14.04071169 25.39510687 -14.08886719 21.33752441 C-14.10894704 19.95816777 -14.13621728 18.57889588 -14.17089844 17.1998291 C-14.2195688 15.21436478 -14.2400048 13.22827203 -14.25976562 11.24230957 C-14.28071289 10.04831543 -14.30166016 8.85432129 -14.32324219 7.62414551 C-13.86914062 4.50793457 -13.86914062 4.50793457 -12.45758057 2.3449173 C-8.48653529 -0.47328276 -4.75827312 -0.04466509 0 0 Z " fill="#ffffff" transform="translate(141.869140625,327.4920654296875)"/>
<path d="M0 0 C0.66 -0.0103125 1.32 -0.020625 2 -0.03125 C4.97217385 0.75823368 6.09656286 2.10063373 8 4.5 C8.50793457 7.6875 8.50793457 7.6875 8.51757812 11.5 C8.5245874 12.19641602 8.53159668 12.89283203 8.53881836 13.61035156 C8.55639196 15.90730932 8.54477919 18.20303021 8.53125 20.5 C8.53394513 22.09896073 8.53782773 23.69791987 8.54284668 25.296875 C8.54874082 28.64599226 8.54018192 31.99468243 8.52148438 35.34375 C8.49869435 39.63478591 8.51181796 43.92482111 8.53577423 48.21582031 C8.5502348 51.51700366 8.54562515 54.81795011 8.53526306 58.11914062 C8.53259646 59.70117308 8.53586322 61.28322711 8.54518127 62.86523438 C8.55535179 65.07740163 8.5398419 67.287953 8.51757812 69.5 C8.51280457 71.3871875 8.51280457 71.3871875 8.50793457 73.3125 C7.91152758 77.05520109 6.9748465 78.23159929 4 80.5 C2 81.03125 2 81.03125 0 81 C-0.66 81.0103125 -1.32 81.020625 -2 81.03125 C-4.97217385 80.24176632 -6.09656286 78.89936627 -8 76.5 C-8.50793457 73.3125 -8.50793457 73.3125 -8.51757812 69.5 C-8.5245874 68.80358398 -8.53159668 68.10716797 -8.53881836 67.38964844 C-8.55639196 65.09269068 -8.54477919 62.79696979 -8.53125 60.5 C-8.53394513 58.90103927 -8.53782773 57.30208013 -8.54284668 55.703125 C-8.54874082 52.35400774 -8.54018192 49.00531757 -8.52148438 45.65625 C-8.49869435 41.36521409 -8.51181796 37.07517889 -8.53577423 32.78417969 C-8.5502348 29.48299634 -8.54562515 26.18204989 -8.53526306 22.88085938 C-8.53259646 21.29882692 -8.53586322 19.71677289 -8.54518127 18.13476562 C-8.55535179 15.92259837 -8.5398419 13.712047 -8.51757812 11.5 C-8.51439575 10.241875 -8.51121338 8.98375 -8.50793457 7.6875 C-7.72413955 2.76886132 -5.09820141 -0.0796594 0 0 Z " fill="#ffffff" transform="translate(400,15.5)"/>
<path d="M0 0 C0.66 -0.0103125 1.32 -0.020625 2 -0.03125 C4.97217385 0.75823368 6.09656286 2.10063373 8 4.5 C8.50793457 7.6875 8.50793457 7.6875 8.51757812 11.5 C8.5245874 12.19641602 8.53159668 12.89283203 8.53881836 13.61035156 C8.55639196 15.90730932 8.54477919 18.20303021 8.53125 20.5 C8.53394513 22.09896073 8.53782773 23.69791987 8.54284668 25.296875 C8.54874082 28.64599226 8.54018192 31.99468243 8.52148438 35.34375 C8.49869435 39.63478591 8.51181796 43.92482111 8.53577423 48.21582031 C8.5502348 51.51700366 8.54562515 54.81795011 8.53526306 58.11914062 C8.53259646 59.70117308 8.53586322 61.28322711 8.54518127 62.86523438 C8.55535179 65.07740163 8.5398419 67.287953 8.51757812 69.5 C8.51280457 71.3871875 8.51280457 71.3871875 8.50793457 73.3125 C7.91152758 77.05520109 6.9748465 78.23159929 4 80.5 C2 81.03125 2 81.03125 0 81 C-0.66 81.0103125 -1.32 81.020625 -2 81.03125 C-4.97217385 80.24176632 -6.09656286 78.89936627 -8 76.5 C-8.50793457 73.3125 -8.50793457 73.3125 -8.51757812 69.5 C-8.5245874 68.80358398 -8.53159668 68.10716797 -8.53881836 67.38964844 C-8.55639196 65.09269068 -8.54477919 62.79696979 -8.53125 60.5 C-8.53394513 58.90103927 -8.53782773 57.30208013 -8.54284668 55.703125 C-8.54874082 52.35400774 -8.54018192 49.00531757 -8.52148438 45.65625 C-8.49869435 41.36521409 -8.51181796 37.07517889 -8.53577423 32.78417969 C-8.5502348 29.48299634 -8.54562515 26.18204989 -8.53526306 22.88085938 C-8.53259646 21.29882692 -8.53586322 19.71677289 -8.54518127 18.13476562 C-8.55535179 15.92259837 -8.5398419 13.712047 -8.51757812 11.5 C-8.51439575 10.241875 -8.51121338 8.98375 -8.50793457 7.6875 C-7.72413955 2.76886132 -5.09820141 -0.0796594 0 0 Z " fill="#ffffff" transform="translate(304,15.5)"/>
<path d="M0 0 C0.66 -0.0103125 1.32 -0.020625 2 -0.03125 C4.97217385 0.75823368 6.09656286 2.10063373 8 4.5 C8.50793457 7.6875 8.50793457 7.6875 8.51757812 11.5 C8.5245874 12.19641602 8.53159668 12.89283203 8.53881836 13.61035156 C8.55639196 15.90730932 8.54477919 18.20303021 8.53125 20.5 C8.53394513 22.09896073 8.53782773 23.69791987 8.54284668 25.296875 C8.54874082 28.64599226 8.54018192 31.99468243 8.52148438 35.34375 C8.49869435 39.63478591 8.51181796 43.92482111 8.53577423 48.21582031 C8.5502348 51.51700366 8.54562515 54.81795011 8.53526306 58.11914062 C8.53259646 59.70117308 8.53586322 61.28322711 8.54518127 62.86523438 C8.55535179 65.07740163 8.5398419 67.287953 8.51757812 69.5 C8.51280457 71.3871875 8.51280457 71.3871875 8.50793457 73.3125 C7.91152758 77.05520109 6.9748465 78.23159929 4 80.5 C2 81.03125 2 81.03125 0 81 C-0.66 81.0103125 -1.32 81.020625 -2 81.03125 C-4.97217385 80.24176632 -6.09656286 78.89936627 -8 76.5 C-8.50793457 73.3125 -8.50793457 73.3125 -8.51757812 69.5 C-8.5245874 68.80358398 -8.53159668 68.10716797 -8.53881836 67.38964844 C-8.55639196 65.09269068 -8.54477919 62.79696979 -8.53125 60.5 C-8.53394513 58.90103927 -8.53782773 57.30208013 -8.54284668 55.703125 C-8.54874082 52.35400774 -8.54018192 49.00531757 -8.52148438 45.65625 C-8.49869435 41.36521409 -8.51181796 37.07517889 -8.53577423 32.78417969 C-8.5502348 29.48299634 -8.54562515 26.18204989 -8.53526306 22.88085938 C-8.53259646 21.29882692 -8.53586322 19.71677289 -8.54518127 18.13476562 C-8.55535179 15.92259837 -8.5398419 13.712047 -8.51757812 11.5 C-8.51439575 10.241875 -8.51121338 8.98375 -8.50793457 7.6875 C-7.72413955 2.76886132 -5.09820141 -0.0796594 0 0 Z " fill="#ffffff" transform="translate(208,15.5)"/>
<path d="M0 0 C0.66 -0.0103125 1.32 -0.020625 2 -0.03125 C4.97217385 0.75823368 6.09656286 2.10063373 8 4.5 C8.50793457 7.6875 8.50793457 7.6875 8.51757812 11.5 C8.5245874 12.19641602 8.53159668 12.89283203 8.53881836 13.61035156 C8.55639196 15.90730932 8.54477919 18.20303021 8.53125 20.5 C8.53394513 22.09896073 8.53782773 23.69791987 8.54284668 25.296875 C8.54874082 28.64599226 8.54018192 31.99468243 8.52148438 35.34375 C8.49869435 39.63478591 8.51181796 43.92482111 8.53577423 48.21582031 C8.5502348 51.51700366 8.54562515 54.81795011 8.53526306 58.11914062 C8.53259646 59.70117308 8.53586322 61.28322711 8.54518127 62.86523438 C8.55535179 65.07740163 8.5398419 67.287953 8.51757812 69.5 C8.51280457 71.3871875 8.51280457 71.3871875 8.50793457 73.3125 C7.91152758 77.05520109 6.9748465 78.23159929 4 80.5 C2 81.03125 2 81.03125 0 81 C-0.66 81.0103125 -1.32 81.020625 -2 81.03125 C-4.97217385 80.24176632 -6.09656286 78.89936627 -8 76.5 C-8.50793457 73.3125 -8.50793457 73.3125 -8.51757812 69.5 C-8.5245874 68.80358398 -8.53159668 68.10716797 -8.53881836 67.38964844 C-8.55639196 65.09269068 -8.54477919 62.79696979 -8.53125 60.5 C-8.53394513 58.90103927 -8.53782773 57.30208013 -8.54284668 55.703125 C-8.54874082 52.35400774 -8.54018192 49.00531757 -8.52148438 45.65625 C-8.49869435 41.36521409 -8.51181796 37.07517889 -8.53577423 32.78417969 C-8.5502348 29.48299634 -8.54562515 26.18204989 -8.53526306 22.88085938 C-8.53259646 21.29882692 -8.53586322 19.71677289 -8.54518127 18.13476562 C-8.55535179 15.92259837 -8.5398419 13.712047 -8.51757812 11.5 C-8.51439575 10.241875 -8.51121338 8.98375 -8.50793457 7.6875 C-7.72413955 2.76886132 -5.09820141 -0.0796594 0 0 Z " fill="#ffffff" transform="translate(112,15.5)"/>
<path d="M0 0 C5.28 0 10.56 0 16 0 C16 10.56 16 21.12 16 32 C10.72 32 5.44 32 0 32 C0 21.44 0 10.88 0 0 Z " fill="#ffffff" transform="translate(328,280)"/>
<path d="M0 0 C5.28 0 10.56 0 16 0 C16 10.56 16 21.12 16 32 C10.72 32 5.44 32 0 32 C0 21.44 0 10.88 0 0 Z " fill="#ffffff" transform="translate(248,280)"/>
<path d="M0 0 C5.28 0 10.56 0 16 0 C16 10.56 16 21.12 16 32 C10.72 32 5.44 32 0 32 C0 21.44 0 10.88 0 0 Z " fill="#ffffff" transform="translate(168,280)"/>
<path d="M0 0 C0.66 0 1.32 0 2 0 C2.98163422 1.93625098 3.96022454 3.87404539 4.9375 5.8125 C5.48277344 6.89144531 6.02804687 7.97039062 6.58984375 9.08203125 C8.78090375 13.61588671 9.44207537 16.96034082 9 22 C7.5 24.4375 7.5 24.4375 5 26 C0.95439643 26.80414661 -1.97873756 26.63828902 -5.5 24.4375 C-7.64193313 20.95685867 -7.52422661 19.06275625 -7 15 C-5.32640164 9.77510755 -3.26025191 4.44579805 0 0 Z " fill="#ffffff" transform="translate(335,214)"/>
<path d="M0 0 C0.66 0 1.32 0 2 0 C2.98163422 1.93625098 3.96022454 3.87404539 4.9375 5.8125 C5.48277344 6.89144531 6.02804687 7.97039062 6.58984375 9.08203125 C8.78090375 13.61588671 9.44207537 16.96034082 9 22 C7.5 24.4375 7.5 24.4375 5 26 C0.95439643 26.80414661 -1.97873756 26.63828902 -5.5 24.4375 C-7.64193313 20.95685867 -7.52422661 19.06275625 -7 15 C-5.32640164 9.77510755 -3.26025191 4.44579805 0 0 Z " fill="#ffffff" transform="translate(255,214)"/>
<path d="M0 0 C0.66 0 1.32 0 2 0 C2.98163422 1.93625098 3.96022454 3.87404539 4.9375 5.8125 C5.48277344 6.89144531 6.02804688 7.97039062 6.58984375 9.08203125 C8.78090375 13.61588671 9.44207537 16.96034082 9 22 C7.5 24.4375 7.5 24.4375 5 26 C0.95439643 26.80414661 -1.97873756 26.63828902 -5.5 24.4375 C-7.64193313 20.95685867 -7.52422661 19.06275625 -7 15 C-5.32640164 9.77510755 -3.26025191 4.44579805 0 0 Z " fill="#ffffff" transform="translate(175,214)"/>
</svg>
